<svg width="256" height="256" viewBox="0 0 256 256" fill="none" xmlns="http://www.w3.org/2000/svg">
<rect width="256" height="256" fill="#030C26"/>
<g clip-path="url(#clip0_283_106)">
<path d="M145.885 144.88C145.79 144.677 145.68 144.483 145.563 144.289C145.358 144.502 145.154 144.714 144.927 144.945C145.271 144.917 145.585 144.899 145.877 144.871L145.885 144.88Z" fill="white"/>
<path d="M146.176 143.645C146.388 144.015 146.585 144.393 146.753 144.809C146.95 144.791 147.148 144.781 147.352 144.763C147.06 144.264 146.775 143.784 146.49 143.312C146.38 143.423 146.271 143.534 146.168 143.645H146.176Z" fill="white"/>
<path d="M230.507 126.403L226.743 126.375L226.59 161.583C227.722 162.266 228.899 162.996 230.156 163.809C230.353 163.938 230.434 164.243 230.331 164.493C230.229 164.742 229.988 164.844 229.791 164.714C228.665 163.994 227.613 163.338 226.59 162.71L226.568 167.338L244.201 167.458L244.216 163.31L230.346 163.209L230.507 126.403Z" fill="#08B1BF"/>
<path d="M45.2672 153.088C45.2233 153.106 45.1722 153.125 45.121 153.125C45.048 153.125 44.9749 153.088 44.9164 153.041C45.0114 155.554 45.618 158.298 46.2245 160.977C47.2256 165.43 48.1756 169.643 46.7433 172.359C46.6922 172.451 46.6483 172.488 46.5679 172.507C45.8737 172.608 44.3464 170.853 43.8349 170.271C40.9776 167.001 38.5296 166.825 36.3738 166.668C34.2473 166.511 32.4058 166.382 30.3377 163.388C30.2939 163.351 29.3147 162.474 28.4085 163.268C28.0578 163.573 27.7216 164.599 27.5901 165.024C27.5097 165.282 27.612 165.578 27.8239 165.68C28.0285 165.781 28.2624 165.652 28.3428 165.393C28.5181 164.82 28.7666 164.211 28.8689 164.1C28.9931 163.989 29.132 163.952 29.2635 163.952C29.5704 163.952 29.8116 164.155 29.8043 164.137C32.0258 167.361 34.1158 167.518 36.33 167.675C38.4565 167.832 40.6561 167.989 43.3014 171.019C44.5072 172.396 45.7422 173.652 46.6703 173.505C46.9845 173.458 47.2402 173.255 47.4156 172.913C49.0525 169.809 48.0514 165.384 46.9991 160.691C46.2537 157.393 45.4864 153.993 45.7568 151.194C46.0564 148.043 47.0722 146.122 48.5483 145.919C50.2218 145.697 52.056 147.785 52.8963 150.889C54.0802 155.249 53.9413 163.194 53.8463 168.451L53.8171 170.29C53.8025 171.103 53.839 172.026 53.8682 172.996C53.9925 176.609 54.1459 181.099 51.9756 182.845C50.6894 183.889 46.2099 180.082 44.0541 178.253C43.433 177.726 42.9068 177.283 42.5488 177.015C41.9568 176.572 41.3065 176.036 40.6269 175.472C37.9669 173.274 34.9488 170.77 32.3108 171.093C29.0516 171.481 27.1808 174.216 25.3686 178.207C25.2882 178.382 25.2078 178.503 25.1347 178.567L25.3686 177.329C26.5232 171.398 27.9555 164.007 26.0847 158.52C25.2224 155.998 23.9655 154.39 22.3359 153.744C19.0986 152.459 14.9552 155.222 11.5718 157.827V159.019C14.8967 156.432 19.0475 153.503 22.0947 154.714C23.5051 155.277 24.572 156.654 25.3466 158.926C27.1078 164.109 25.712 171.306 24.5866 177.089L24.2505 178.817C24.2213 178.964 24.2505 179.131 24.3236 179.251C24.5866 179.676 24.9009 179.713 25.0543 179.703C25.5659 179.657 25.9166 178.992 26.0482 178.715C27.7801 174.9 29.4462 172.461 32.3693 172.11C34.7369 171.842 37.7477 174.317 40.1665 176.331C40.8607 176.904 41.5184 177.449 42.1176 177.902C42.4684 178.161 42.9799 178.595 43.5864 179.112C46.5606 181.634 49.5714 184.027 51.4129 184.027C51.7856 184.027 52.1144 183.925 52.3848 183.713C54.9498 181.653 54.7817 176.83 54.6502 172.959C54.6209 172.008 54.5844 171.112 54.599 170.317L54.6282 168.479C54.7232 163.148 54.8621 155.092 53.6344 150.566C52.6552 146.963 50.5214 144.644 48.446 144.921C47.5837 145.032 45.5668 145.845 44.9968 150.639C45.143 151.212 45.2964 151.794 45.4864 152.422C45.5668 152.681 45.4645 152.977 45.2526 153.078L45.2672 153.088Z" fill="#08B1BF"/>
<path d="M50.419 110.611C50.514 110.361 50.7551 110.251 50.9524 110.371C51.0109 110.408 51.0621 110.426 51.1205 110.463C52.5163 107.313 52.6478 102.213 51.1424 98.9058C49.8928 96.162 47.5617 94.8224 45.4717 95.6539C43.9737 96.2544 42.4537 98.1944 42.7095 101.853C42.8994 104.587 44.9748 109.475 47.3352 110.371C48.1098 110.666 49.2425 110.657 50.3021 108.985C50.3751 108.865 50.4044 108.717 50.3824 108.569C50.3605 108.421 50.2874 108.301 50.1851 108.227C49.9074 108.033 49.6809 107.775 49.4325 107.516C49.3009 107.377 49.1694 107.23 49.0305 107.091C49.0598 107.063 49.1036 107.026 49.1694 106.971C49.2863 106.879 49.3594 106.721 49.3667 106.546C49.374 106.37 49.3009 106.204 49.184 106.112C49.0378 105.992 48.9648 105.872 48.8625 105.705C49.659 105.096 50.3167 104.726 50.324 104.717C50.4336 104.652 50.514 104.541 50.5432 104.393C50.5724 104.246 50.5578 104.098 50.4921 103.968C50.4701 103.931 48.4167 100.079 47.4594 98.1482C47.3425 97.908 47.094 97.8434 46.904 97.9819C46.714 98.1298 46.6556 98.4439 46.7798 98.6841C47.5398 100.218 48.9794 102.943 49.564 104.052C49.1986 104.283 48.6432 104.661 48.044 105.151C47.9417 105.234 47.8759 105.373 47.8613 105.52C47.8467 105.668 47.8905 105.825 47.9709 105.936C48.0659 106.056 48.1317 106.167 48.1975 106.278C48.2413 106.352 48.2852 106.426 48.3436 106.509C48.3144 106.555 48.2705 106.592 48.1463 106.694C48.0221 106.786 47.949 106.952 47.949 107.137C47.949 107.313 48.0294 107.488 48.1536 107.571C48.4313 107.765 48.6578 108.024 48.9063 108.283C49.0598 108.449 49.2059 108.615 49.3813 108.772C48.8332 109.447 48.234 109.65 47.5763 109.401C45.5813 108.643 43.696 104.236 43.5206 101.76C43.3379 99.1645 44.1637 97.2429 45.7202 96.6239C47.1306 96.0604 49.2132 96.6886 50.4482 99.4047C52.129 103.091 51.559 109.465 49.3667 111.581C47.759 113.133 45.9467 111.599 44.7117 110.029C41.1383 105.502 40.5902 95.0441 40.2322 88.1245L40.1518 86.6741C40.8168 85.7687 42.4025 85.741 43.2648 85.8796C43.3014 85.8796 43.3452 85.8796 43.3818 85.8796C43.5864 85.8334 44.0614 85.7318 44.1125 85.2144C44.1637 84.6509 43.7106 84.4107 42.8848 83.9673C42.4756 83.7455 41.5256 83.2374 41.4379 82.9695C41.4014 82.4429 41.6718 81.7223 41.7814 81.5006C41.8106 81.4544 41.8398 81.399 41.8545 81.3435C41.9495 81.0017 42.0883 80.6045 42.2271 80.2072C42.6875 78.8861 43.1625 77.5281 42.4464 76.983C42.3075 76.8814 42.1468 76.8537 41.9933 76.9183C41.5329 77.1031 41.1748 77.99 40.5245 79.8377C40.4952 79.9116 40.466 79.9947 40.4368 80.0779C40.4222 79.8839 40.4149 79.6899 40.4002 79.5143C40.2833 77.4911 40.2029 76.6319 39.8449 76.3086C39.7499 76.2255 39.5306 76.17 39.4137 76.207C38.9899 76.3456 38.9606 76.8906 38.9241 79.154C38.9168 79.5513 38.9095 80.0409 38.8876 80.4659C38.778 80.2165 38.6757 79.9485 38.5807 79.7361C37.9668 78.2302 37.6014 77.3156 37.0241 77.602C36.4834 77.8699 36.6441 78.8215 36.8926 80.2534C36.9584 80.6414 37.0534 81.205 37.0972 81.593C36.8853 81.4082 36.6076 81.1495 36.3957 80.9463C35.6064 80.1887 35.0511 79.6899 34.6272 79.6252C34.3495 79.579 34.1376 79.6621 33.9988 79.8746C33.8088 80.1795 33.9038 80.5398 33.9476 80.6876C33.9768 80.7892 34.028 80.8816 34.1011 80.9371C37.9157 84.2629 37.6672 91.1825 37.4114 98.5178C37.2141 104.024 37.0168 109.724 38.7268 113.77C39.5014 115.609 40.1956 116.634 40.8095 117.54C42.2345 119.646 43.4694 121.466 45.311 132.931C45.6398 134.973 45.1429 136.469 44.5656 138.197C43.5717 141.162 42.3368 144.848 44.7483 152.83C44.7848 152.941 44.8433 153.024 44.9164 153.08C44.8944 152.415 44.8944 151.759 44.9529 151.121C44.9675 150.964 44.9894 150.826 45.004 150.687C43.3964 144.34 44.4048 141.301 45.3037 138.594C45.9102 136.793 46.4802 135.083 46.1002 132.737C44.2148 121.013 42.9214 119.101 41.4233 116.884C40.8095 115.978 40.1737 115.036 39.4356 113.299C37.828 109.493 38.0253 103.941 38.2153 98.5732C38.4345 92.3742 38.661 85.9905 36.1399 81.981C36.856 82.6554 37.1922 82.9233 37.5137 82.7847C38.1057 82.5353 37.923 81.4914 37.6745 80.0409C37.6453 79.8931 37.616 79.7176 37.5868 79.5421C37.6891 79.773 37.7841 80.0132 37.8645 80.2072C38.3833 81.4914 38.6318 82.0641 38.9972 82.1473C39.1214 82.1658 39.3114 82.1103 39.4064 82.0087C39.5672 81.8332 39.6329 81.556 39.6695 80.7892C39.7426 81.6207 39.8449 81.9533 40.1518 82.0364C40.5683 82.1565 40.7291 81.7131 41.2479 80.2534C41.416 79.7915 41.6645 79.0801 41.8837 78.5535C41.7668 78.9693 41.5987 79.4589 41.4818 79.7915C41.3356 80.198 41.1968 80.6045 41.0945 80.9648C40.846 81.4267 40.5756 82.3967 40.6268 83.0711C40.6852 83.8564 41.5329 84.3553 42.3952 84.8264C41.4452 84.8264 40.0787 85.0666 39.3991 86.2307C39.3406 86.3231 39.3187 86.4432 39.3187 86.5633L39.4064 88.2077C39.7718 95.2751 40.3272 105.964 44.1198 110.768C46.9113 114.306 48.899 113.318 49.8344 112.403C50.134 112.107 50.4117 111.747 50.6601 111.331C50.6382 111.313 50.6163 111.313 50.5871 111.295C50.3898 111.174 50.3021 110.87 50.3971 110.62L50.419 110.611Z" fill="#08B1BF"/>
<path d="M44.9147 153.041C44.9804 153.087 45.0462 153.124 45.1193 153.124C45.1704 153.124 45.2143 153.115 45.2654 153.087C45.47 152.986 45.5797 152.69 45.4993 152.431C45.3093 151.803 45.1558 151.221 45.0097 150.648C44.995 150.796 44.9731 150.935 44.9585 151.083C44.9001 151.711 44.8927 152.367 44.922 153.041H44.9147Z" fill="#08B1BF"/>
<path d="M82.9817 157.402C82.9817 157.402 82.9965 157.392 83.0039 157.383C82.9595 157.402 82.9151 157.421 82.8633 157.421C82.9003 157.421 82.9447 157.421 82.9817 157.402Z" fill="#08B1BF"/>
<path d="M89.5055 110.502C89.7758 110.631 90.017 110.723 90.2581 110.806C91.0254 110.345 91.8804 109.208 92.2312 106.538C92.9035 101.411 91.2008 98.4085 89.3885 97.3091C87.6639 96.2652 85.6982 96.7087 84.4924 98.4085C83.579 99.6927 81.9055 103.49 85.6324 111.352C85.0843 111.592 84.5874 111.49 84.1197 111.056C80.9409 108.035 80.1809 90.8515 81.5694 82.9619C81.774 81.7978 83.1917 81.0865 84.1197 80.6153C84.434 80.3844 84.8578 80.0795 84.7409 79.5621C84.624 79.054 84.2001 79.0725 83.4986 79.1002C82.9798 79.1187 81.8982 79.1649 81.7009 78.8138C81.5767 78.5736 81.5621 77.5944 82.2417 74.2962C82.4171 73.4463 82.4828 73.123 82.1174 72.9659C81.9859 72.9105 81.7375 72.8828 81.5621 73.3632C80.6048 76.0515 80.0713 76.2548 79.9032 76.2271C79.4063 76.1994 78.9021 74.3055 78.6536 73.4001C78.3686 72.3377 78.2444 71.9035 77.9521 71.7464C77.8717 71.7002 77.7183 71.691 77.6306 71.7187C77.024 71.9127 77.2067 72.8643 77.6087 74.9429C77.7037 75.451 77.8352 76.107 77.9083 76.6151C77.7256 76.3195 77.521 75.9499 77.3675 75.6728C76.6952 74.4533 76.1617 73.4925 75.5844 74.0006C75.1167 74.4071 75.4237 75.2478 75.8841 76.5227C76.0887 77.077 76.4467 78.0563 76.4906 78.4997C76.2714 78.3796 75.906 78.0378 75.7087 77.8623C75.1825 77.3726 74.8318 77.0585 74.5029 77.3634C74.196 77.6498 74.3348 78.1671 74.386 78.3611C74.4079 78.435 74.4371 78.509 74.4883 78.5644C74.671 78.7953 74.8537 78.9986 75.0291 79.2018C75.7233 79.9963 76.2714 80.6246 76.6148 82.038C77.5721 85.9551 77.5136 92.5606 77.4552 98.9536C77.3967 105.651 77.3383 111.989 78.3321 115.878C79.0994 118.899 79.8813 121.19 80.5682 123.204C82.2417 128.092 83.1551 130.789 81.3721 136.877L81.2771 137.201C80.6194 139.409 79.9471 141.7 80.5244 146.596C80.6852 147.982 81.3867 152.121 82.1467 155.622C82.4682 155.881 82.7898 156.176 83.1259 156.546C83.199 156.62 83.2355 156.731 83.2501 156.842C83.2501 156.823 83.2501 156.805 83.2501 156.786C82.3805 153.109 81.5036 148 81.3209 146.448C80.7655 141.811 81.4086 139.649 82.0298 137.552L82.1248 137.228C84.0247 130.761 83.0017 127.768 81.3063 122.798C80.6267 120.802 79.8521 118.539 79.0921 115.564C78.1421 111.823 78.2006 105.282 78.2517 98.9628C78.3102 92.4959 78.3686 85.8073 77.3748 81.7424C77.1337 80.7724 76.8048 80.098 76.4321 79.5437C76.644 79.5991 76.8414 79.5714 77.0167 79.3958C77.616 78.8138 77.1556 77.5574 76.6148 76.0977C76.644 76.1532 76.6806 76.2086 76.7098 76.264C77.3456 77.4096 77.806 78.2318 78.3394 78.1117C78.449 78.084 78.6025 77.9547 78.6683 77.8346C78.829 77.5297 78.8071 77.0308 78.6317 76.0238C78.9459 76.7167 79.3406 77.2248 79.8667 77.2525C80.2467 77.2895 80.6267 77.04 81.0067 76.5135C80.7875 77.9362 80.7655 78.9339 81.0432 79.4236C81.4013 80.0518 82.2198 80.1257 82.9505 80.1442C82.0371 80.6707 81.0067 81.4653 80.7802 82.7586C79.4356 90.408 79.8959 108.34 83.6374 111.887C84.4632 112.673 85.4205 112.728 86.407 112.044C86.502 111.98 86.5751 111.86 86.6043 111.73C86.6336 111.592 86.6189 111.453 86.5532 111.333C83.9517 106.058 83.4036 101.485 85.0917 99.1106C86.0563 97.7434 87.6493 97.4015 89.0451 98.2515C91.0547 99.4709 91.9535 102.52 91.442 106.4C91.1789 108.423 90.5724 109.679 89.6881 110.03C88.8843 110.345 87.8539 109.864 87.0062 108.756C86.0343 107.49 85.1428 105.116 85.8297 102.603C86.2609 101.032 86.7724 100.145 87.2985 100.173C87.9489 100.21 88.7455 101.633 89.1035 103.416C89.1693 103.73 89.4178 104.912 89.5201 105.245C89.5347 105.291 89.5493 105.347 89.5639 105.402C89.3374 105.43 89.1474 105.448 89.0962 105.448C88.9062 105.439 88.7601 105.578 88.7089 105.781C88.7235 105.781 88.7382 105.79 88.7528 105.799C88.8039 105.836 89.2643 106.169 89.7466 105.596C89.9074 105.411 90.1631 105.42 90.3166 105.624C90.4554 105.808 90.4408 106.086 90.3166 106.28C90.3897 106.233 90.4628 106.178 90.5066 106.076C90.5724 105.938 90.5797 105.762 90.5212 105.614C90.5212 105.614 90.3678 105.19 90.2801 104.894C90.207 104.626 89.9585 103.517 89.8928 103.166C89.4981 101.217 88.5555 99.2215 87.3424 99.1568C86.4362 99.0829 85.6543 100.155 85.077 102.261C84.2659 105.208 85.3036 107.98 86.4363 109.458C87.2182 110.483 88.1243 111.056 88.9939 111.13C88.972 111.028 88.9647 110.917 88.9939 110.806C89.0743 110.548 89.3081 110.409 89.5128 110.52L89.5055 110.502Z" fill="#08B1BF"/>
<path d="M83.8133 166.215C83.8864 166.723 83.9449 167.148 84.0033 167.971C84.3103 172.026 82.023 176.137 77.5653 179.537C74.445 181.921 68.4527 180.655 65.917 177.994C65.5808 177.643 65.2447 177.255 64.9012 176.84C65.0766 176.618 65.252 176.368 65.4054 176.11C67.1666 173.227 65.6466 169.523 64.4189 166.539C64.1412 165.855 63.8709 165.199 63.6516 164.589C63.3666 163.776 63.0816 163 62.8185 162.261C60.4947 155.794 58.9528 151.517 59.0551 143.544C59.077 141.854 59.1647 140.181 59.2524 138.574C59.3913 136.006 59.5301 133.345 59.3913 130.592C59.3036 128.809 59.0259 127.238 58.7555 125.714C58.339 123.331 57.9444 121.076 58.3098 118.296C58.3609 117.917 59.0697 116.642 59.6982 115.506C60.882 113.372 62.3509 110.72 62.5262 108.983C63.0597 103.542 60.1147 99.089 57.2575 94.7746C53.9471 89.7766 50.8195 85.0558 52.3541 78.7737C52.3979 78.5981 52.354 78.3949 52.2517 78.2656C52.1348 78.1177 51.974 78.0346 51.8133 78.0531C51.4333 78.0715 51.1264 78.5427 50.7098 79.1802C50.4321 76.0668 49.9791 75.6418 49.4968 75.688C49.3798 75.6973 49.2045 75.7619 49.0583 76.0021C48.8902 76.2793 48.7952 76.7689 48.7441 77.3602C48.3495 75.7897 48.0718 74.9767 47.6918 74.7272C47.5529 74.6349 47.3922 74.6164 47.2533 74.6718C47.1291 74.718 46.961 74.8473 46.866 75.1799C46.698 75.7527 46.7856 77.0368 46.9683 78.3487C46.486 77.2955 46.1499 76.7597 45.8064 76.6396C45.6603 76.5842 45.5068 76.6119 45.3972 76.695C44.966 76.9814 45.1049 77.3971 45.8941 79.7067C46.1937 80.5844 46.5445 81.6191 46.866 82.7277C46.7418 83.0049 45.8795 83.2081 45.5068 83.3005C44.9587 83.4298 44.6591 83.5037 44.5057 83.7901C44.4472 83.901 44.418 84.095 44.4399 84.2336C44.586 85.1297 45.6091 85.4715 46.603 85.8041C46.9099 85.9057 47.1949 85.9981 47.4214 86.0997C47.7795 86.266 48.0572 86.3861 48.2691 86.46C48.4883 86.5432 48.6856 86.7279 48.8318 86.9774L50.0668 89.1392C52.661 93.6475 54.2248 96.3636 56.4829 101.851C57.3305 103.893 57.0967 107.727 55.5256 109.787C54.4221 111.228 52.9021 111.45 51.1118 110.443C50.9729 110.748 50.8268 111.043 50.666 111.311C52.8071 112.568 54.7363 112.291 56.1028 110.498C57.7836 108.3 58.2951 104.041 57.199 101.389C54.9044 95.837 53.326 93.0932 50.7171 88.5479L49.4822 86.3954C49.241 85.9704 48.8902 85.6471 48.5102 85.4992C48.3129 85.4253 48.0426 85.3145 47.7064 85.1574C47.4653 85.0466 47.151 84.9357 46.8149 84.8248C46.508 84.7232 45.9307 84.5292 45.5653 84.326C45.6018 84.3167 45.6384 84.3075 45.6676 84.2982C46.3837 84.1227 47.2753 83.9102 47.5749 83.2173C47.6626 83.0233 47.7429 82.6908 47.6114 82.275C47.4726 81.8223 47.3264 81.3697 47.1803 80.9262C47.4945 81.6376 47.6918 82.0441 47.8599 82.2196C48.0133 82.3767 48.2252 82.3674 48.3787 82.2104C48.5322 82.0533 48.5614 81.7762 48.4591 81.5637C48.1375 80.88 47.6041 77.6743 47.5676 76.2054C47.7941 76.889 48.0572 78.0069 48.2399 78.7644C48.5468 80.0578 48.7441 80.8708 48.9487 81.2496C49.0583 81.4436 49.2629 81.5267 49.4383 81.4343C49.6137 81.3419 49.716 81.1017 49.6795 80.8708C49.4675 79.5312 49.4748 77.9145 49.5771 77.1015C49.716 77.6558 49.8841 78.7367 49.9864 80.4551C50.001 80.6491 50.1033 80.8246 50.2494 80.8893C50.3956 80.9632 50.5637 80.9077 50.6733 80.7692C50.8998 80.4828 51.1118 80.1594 51.3091 79.8638C50.3883 85.9981 53.5598 90.7929 56.6363 95.4398C59.5082 99.7726 62.212 103.865 61.7224 108.872C61.5762 110.36 60.1074 113.002 59.0332 114.933C58.1124 116.587 57.5863 117.557 57.5132 118.139C57.1186 121.113 57.5278 123.46 57.9663 125.945C58.2294 127.432 58.4998 128.966 58.5801 130.666C58.7117 133.354 58.5801 135.858 58.4413 138.519C58.3536 140.145 58.2659 141.826 58.244 143.544C58.1417 151.748 59.7128 156.109 62.0805 162.696C62.3509 163.435 62.6285 164.211 62.9135 165.024C63.1328 165.652 63.4105 166.326 63.7028 167.028C64.8793 169.892 66.2093 173.135 64.7624 175.5C64.6235 175.731 64.4701 175.953 64.3166 176.147C63.6882 175.371 63.0597 174.53 62.4386 173.708C60.2317 170.798 58.3317 168.285 56.8628 168.202C55.9786 168.165 55.489 168.673 55.2332 169.107C54.5171 170.345 54.7509 172.414 54.9702 173.163C55.8179 176.11 57.8859 178.318 60.2243 178.78C61.7151 179.066 63.1255 178.613 64.2874 177.505C64.6601 177.957 65.0328 178.373 65.3981 178.761C67.1447 180.6 70.2869 181.81 73.2392 181.81C75.0003 181.81 76.6884 181.376 77.9746 180.396C82.7099 176.775 85.136 172.322 84.7999 167.86C84.7341 166.991 84.6756 166.548 84.5952 166.021C84.5952 166.003 84.5952 165.975 84.5879 165.957C84.2883 165.726 83.9887 165.486 83.6818 165.236C83.7256 165.615 83.7695 165.929 83.806 166.197L83.8133 166.215ZM60.3559 177.791C58.2951 177.385 56.4829 175.435 55.7302 172.83C55.5402 172.165 55.4232 170.511 55.8836 169.717C56.0736 169.384 56.3586 169.218 56.7459 169.218C56.7751 169.218 56.7971 169.218 56.8263 169.218C57.9736 169.283 59.9467 171.888 61.8612 174.41C62.4678 175.214 63.0889 176.036 63.7101 176.812C62.7455 177.689 61.5909 178.031 60.3559 177.791Z" fill="#08B1BF"/>
<path d="M50.9493 110.369C50.752 110.249 50.5109 110.36 50.4159 110.609C50.3209 110.859 50.4086 111.163 50.6059 111.284C50.6278 111.302 50.6497 111.302 50.679 111.32C50.8397 111.053 50.9859 110.766 51.1247 110.452C51.0663 110.424 51.0151 110.397 50.9566 110.36L50.9493 110.369Z" fill="#08B1BF"/>
<path d="M99.2255 172.669C99.2255 172.669 99.2401 172.586 99.2475 172.54C98.8017 174.046 97.8663 174.147 96.6533 174.267C94.3441 174.498 91.4722 174.794 90.4345 183.986C90.2299 185.788 89.6233 186.592 89.3529 186.61C89.3018 186.61 89.2506 186.481 89.2287 186.388C89.4187 182.314 89.1045 179.552 88.8195 177.104C88.7172 176.226 88.6222 175.385 88.5564 174.526C88.2129 170.267 88.9218 169.519 89.141 169.39C89.5356 169.168 90.2299 169.667 91.0045 170.72C91.1579 170.923 91.4064 170.932 91.5745 170.748C91.7352 170.554 91.7425 170.24 91.5964 170.027C90.2445 168.189 89.3383 168.161 88.8122 168.466C87.8257 169.029 87.4749 171.108 87.7599 174.628C87.833 175.505 87.928 176.355 88.0303 177.251C88.3079 179.663 88.6222 182.397 88.4249 186.407C88.4249 186.453 88.4249 186.508 88.4322 186.555C88.5783 187.34 88.9949 187.626 89.3529 187.626C89.3676 187.626 89.3822 187.626 89.3895 187.626C90.091 187.589 90.9606 186.481 91.231 184.134C92.181 175.746 94.5925 175.505 96.719 175.284C97.9613 175.154 99.2328 175.016 99.8905 173.196C99.7882 173.196 99.7005 173.196 99.6201 173.196C99.4009 173.187 99.2255 172.956 99.2328 172.669H99.2255Z" fill="#08B1BF"/>
<path d="M99.6418 172.173C99.766 172.173 99.9414 172.173 100.153 172.136C100.292 171.36 100.365 170.381 100.336 169.143C100.285 166.981 100.27 164.949 100.256 163.009C100.204 155.775 100.161 149.53 98.1656 141.566C95.3084 130.166 95.4618 120.558 98.6845 108.4C100.058 103.208 99.6126 97.9887 99.101 91.9375L99.006 90.8104C98.5164 84.9625 98.5749 83.2626 100.321 78.5048C100.321 78.4956 100.329 78.4771 100.336 78.4679L100.402 78.2923C101.505 75.373 101.527 74.6062 101.184 74.2089C101.096 74.1166 100.935 74.0427 100.811 74.0611C100.482 74.1073 100.219 74.523 99.6199 75.6224C99.576 75.7056 99.5176 75.798 99.4664 75.8996C99.3129 75.0958 99.1668 74.2274 99.0279 73.4422C98.6333 71.1325 98.5676 70.8462 98.4068 70.6521C98.2972 70.5136 98.078 70.4581 97.9318 70.532C97.6103 70.6983 97.508 71.0309 97.3837 73.8579C96.6822 70.7261 96.5507 70.375 96.0757 70.4859C95.7103 70.5782 95.5349 70.6152 95.7614 74.1073C95.3668 73.0264 95.0307 72.4814 94.6287 72.4259C94.5118 72.4074 94.2268 72.4259 94.0149 72.8324C93.9638 72.9248 93.9418 73.0357 93.9491 73.1465C93.9857 73.6824 94.2414 74.8649 94.5118 76.1213C94.636 76.6756 94.7603 77.2761 94.8626 77.7842C93.4741 76.7126 93.0138 76.7126 92.7434 77.0729C92.3707 77.5717 92.7872 78.357 93.1965 79.0314C96.463 85.0641 96.1707 86.6716 95.2134 91.9929C94.9503 93.4526 94.6214 95.2726 94.3145 97.5083C94.0953 99.088 94.0661 100.954 94.0368 102.746C93.9857 106.109 93.9272 109.583 92.6265 110.682C92.0711 111.153 91.2819 111.172 90.2515 110.802C90.1346 110.876 90.025 110.932 89.9153 110.969C89.6157 111.089 89.2942 111.126 88.9727 111.098C89.0092 111.246 89.0823 111.375 89.2065 111.431C90.8873 112.271 92.1515 112.299 93.0722 111.523C94.7238 110.128 94.7822 106.553 94.8407 102.756C94.8699 100.991 94.8991 99.1712 95.1038 97.6653C95.4107 95.4573 95.7176 93.7297 95.9953 92.2054C96.9891 86.7085 97.318 84.8516 93.8468 78.4217C93.7665 78.2923 93.7007 78.1722 93.6495 78.0706C93.9564 78.2554 94.4534 78.6157 95.228 79.2624C95.3595 79.3732 95.5203 79.3732 95.6518 79.2808C95.7834 79.1792 95.8637 78.9944 95.8491 78.8004C95.8126 78.2646 95.5568 77.0821 95.2864 75.8257C95.1768 75.336 95.0672 74.8094 94.9722 74.3475C95.2572 75.1051 95.5495 76.0843 95.681 76.5278C96.0099 77.6272 96.0976 77.9228 96.4776 77.8119C96.6164 77.775 96.8357 77.6272 96.7918 77.1006C96.6822 75.7333 96.6091 74.6801 96.558 73.8671C96.6383 74.2274 96.7187 74.597 96.7991 74.9573L97.2083 76.7772C97.2668 77.0174 97.4787 77.2207 97.6614 77.193C98.056 77.1375 98.056 77.0451 98.1437 74.7725C98.1583 74.3937 98.1803 73.9041 98.2022 73.4052C98.2168 73.4791 98.2314 73.553 98.2387 73.6269C98.4214 74.7078 98.6406 75.955 98.8525 76.9805C98.8891 77.1745 99.0499 77.3592 99.2033 77.3962C99.5468 77.4793 99.7368 77.1375 100.234 76.2414C100.102 76.6479 99.9195 77.1652 99.6783 77.8212C99.6491 77.9043 99.6199 77.9782 99.5979 78.0429C97.771 82.9947 97.7053 84.8978 98.2095 90.8843L98.3045 92.0114C98.8087 97.9425 99.2472 103.061 97.9245 108.04C94.943 119.283 94.5557 128.402 96.6895 138.684C97.0841 138.97 97.413 139.294 97.6541 139.589C97.8149 139.783 97.8149 140.107 97.6614 140.31C97.508 140.513 97.2522 140.513 97.0914 140.328C97.0841 140.319 97.0549 140.291 97.0256 140.245C97.1499 140.772 97.2668 141.308 97.4057 141.843C99.3641 149.659 99.4079 155.84 99.4591 162.981C99.4737 164.93 99.4883 166.963 99.5395 169.134C99.576 170.621 99.4883 171.656 99.291 172.376C99.3568 172.229 99.4737 172.127 99.6491 172.127L99.6418 172.173Z" fill="#08B1BF"/>
<path d="M90.2601 110.804C90.019 110.721 89.7778 110.629 89.5075 110.499C89.3028 110.389 89.069 110.527 88.9886 110.786C88.9521 110.897 88.9594 111.008 88.9886 111.109C89.3101 111.137 89.6317 111.1 89.9313 110.98C90.0409 110.934 90.1505 110.878 90.2674 110.814L90.2601 110.804Z" fill="#08B1BF"/>
<path d="M141.463 187.186C140.879 188.35 140.323 189.449 139.753 190.28C139.848 189.92 139.987 189.458 140.199 188.922C140.703 187.398 140.747 186.04 140.338 184.784C139.68 182.77 137.912 181.227 135.354 179.656C135.471 179.786 135.53 179.998 135.478 180.201C135.427 180.414 135.267 180.552 135.098 180.552C135.062 180.552 135.018 180.552 134.974 180.525C134.916 180.497 134.865 180.478 134.806 180.451C137.262 181.938 139.015 183.407 139.593 185.162C139.914 186.151 139.87 187.25 139.468 188.488C138.986 189.708 138.518 191.25 139.052 191.722C139.147 191.805 139.242 191.842 139.344 191.842C139.695 191.842 140.031 191.38 140.199 191.158C140.879 190.243 141.522 188.959 142.143 187.721C143.115 185.781 144.123 183.795 145.234 183.158C144.883 183.038 144.54 182.917 144.189 182.788C143.181 183.786 142.311 185.495 141.463 187.176V187.186Z" fill="#08B1BF"/>
<path d="M113.979 172.186C107.044 171.087 102.886 171.734 100.891 172.038C100.606 172.085 100.365 172.122 100.16 172.149C100.087 172.546 99.9993 172.898 99.8896 173.193C100.175 173.175 100.533 173.119 100.986 173.045C102.952 172.74 107.036 172.112 113.876 173.193C120.607 174.256 125.064 175.253 129.369 177.508L129.741 177.702C130.136 177.905 130.516 178.108 130.896 178.302C129.99 177.618 129.23 176.87 128.601 176.039C124.538 174.117 120.219 173.165 113.971 172.177L113.979 172.186Z" fill="#08B1BF"/>
<path d="M135.128 179.54C133.981 178.847 132.695 178.155 131.277 177.406C132.344 178.219 133.623 178.921 135.128 179.54Z" fill="#08B1BF"/>
<path d="M99.6411 172.175C99.4658 172.175 99.3489 172.276 99.2831 172.424C99.2685 172.461 99.2538 172.498 99.2465 172.544C99.2392 172.59 99.2246 172.627 99.2246 172.674C99.2246 172.951 99.3927 173.191 99.6119 173.2C99.6923 173.2 99.7873 173.2 99.8823 173.2C99.9919 172.905 100.08 172.554 100.153 172.156C99.9407 172.184 99.7654 172.202 99.6411 172.193V172.175Z" fill="#08B1BF"/>
<path d="M137.399 146.032C137.589 146.263 137.786 146.484 138.005 146.697C139.292 143.99 141.038 142.697 143.347 142.687C143.42 142.373 143.501 142.041 143.574 141.69C140.6 141.616 138.678 143.445 137.399 146.032Z" fill="#08B1BF"/>
<path d="M145.831 156.307C145.459 157.711 144.611 159.586 143.712 161.563C142.163 164.981 140.563 168.51 140.65 171.097C140.723 173.148 141.111 174.515 141.827 175.282C142.813 176.335 144.231 176.114 145.722 175.864C147.249 175.624 148.835 175.365 150.223 176.317C151.181 176.973 151.941 177.961 152.679 178.922C153.892 180.502 155.149 182.146 156.895 180.862C157.005 180.779 157.122 180.668 157.253 180.539C157.538 180.262 157.831 179.957 158.152 179.994C158.547 180.022 158.817 180.16 159.007 180.447C159.614 181.37 159.365 183.791 159.044 186.849C158.744 189.731 158.371 193.316 158.561 197.159C158.488 197.177 158.408 197.177 158.386 197.159C158.386 197.159 158.364 197.094 158.401 196.919C158.415 196.845 158.415 196.762 158.401 196.688C157.085 189.352 155.952 186.83 150.961 184.29C149.953 183.772 148.214 183.172 146.189 182.46C142.229 181.075 136.799 179.181 135.681 177.37C133.35 173.592 134.885 162.385 135.623 156.999C135.71 156.362 135.791 155.789 135.849 155.318C136.258 152.112 136.836 149.553 137.61 147.595C137.384 147.382 137.179 147.16 136.982 146.93C135.944 149.442 135.403 152.473 135.06 155.161C135.002 155.632 134.921 156.196 134.833 156.833C134.015 162.783 132.502 173.869 135.045 177.998C136.163 179.809 140.175 181.398 144.173 182.812C144.45 182.544 144.728 182.313 145.028 182.165C145.239 182.063 145.466 182.193 145.546 182.451C145.627 182.71 145.525 183.006 145.32 183.107C145.283 183.126 145.254 183.153 145.218 183.172C145.473 183.264 145.722 183.347 145.978 183.44C147.973 184.133 149.697 184.733 150.662 185.232C155.324 187.606 156.347 189.842 157.597 196.799C157.502 197.454 157.736 197.796 157.889 197.953C158.057 198.12 158.269 198.194 158.481 198.194C158.678 198.194 158.868 198.129 159.022 198.027C159.263 197.87 159.394 197.602 159.38 197.316C159.168 193.491 159.54 189.888 159.847 186.987C160.205 183.551 160.461 181.066 159.628 179.8C159.299 179.301 158.817 179.024 158.196 178.987C157.56 178.941 157.107 179.412 156.771 179.744C156.676 179.837 156.588 179.929 156.508 179.985C155.353 180.835 154.608 179.957 153.271 178.22C152.532 177.259 151.692 176.16 150.618 175.43C148.996 174.331 147.213 174.617 145.634 174.867C144.26 175.088 143.076 175.273 142.353 174.506C141.812 173.933 141.52 172.797 141.461 171.051C141.381 168.76 142.989 165.203 144.414 162.062C145.334 160.03 146.197 158.117 146.591 156.621C147.892 151.669 147.929 147.724 146.752 144.805C146.467 144.823 146.175 144.842 145.883 144.869C147.147 147.558 147.139 151.327 145.831 156.297V156.307Z" fill="#08B1BF"/>
<path d="M144.846 141.879C144.787 141.824 144.721 141.787 144.648 141.778C144.546 141.759 144.458 141.768 144.363 141.75C144.298 142.083 144.232 142.434 144.159 142.739C144.254 142.748 144.341 142.739 144.436 142.757C144.882 143.21 145.24 143.727 145.554 144.272C145.752 144.06 145.971 143.838 146.168 143.635C145.796 142.988 145.372 142.387 144.846 141.87V141.879Z" fill="#08B1BF"/>
<path d="M145.562 144.286C145.671 144.48 145.788 144.674 145.883 144.877C146.183 144.859 146.468 144.831 146.753 144.812C146.585 144.406 146.387 144.018 146.175 143.648C145.978 143.852 145.766 144.073 145.562 144.286Z" fill="#08B1BF"/>
<path d="M145.563 182.446C145.482 182.187 145.249 182.058 145.044 182.16C144.744 182.308 144.459 182.538 144.189 182.806C144.54 182.926 144.883 183.056 145.234 183.176C145.27 183.157 145.3 183.12 145.336 183.111C145.541 183.01 145.643 182.714 145.563 182.455V182.446Z" fill="#08B1BF"/>
<path d="M157.422 66.276C157.057 65.5646 156.355 64.1881 156.18 63.6245C156.443 63.874 156.859 64.3636 157.159 64.7239C158.16 65.9249 158.818 66.6547 159.38 66.6547H159.402C159.929 66.6363 160.411 66.0727 160.791 65.0103C160.879 64.7609 160.966 64.4745 161.039 64.1696C161.039 64.3359 161.039 64.4929 161.039 64.6315C161.047 64.881 161.2 65.0842 161.397 65.1119C161.602 65.1396 161.777 64.9826 161.829 64.7331C162.135 63.2919 162.625 62.211 162.947 61.7676C162.976 62.8208 162.72 65.3614 162.282 67.2552H163.115C163.655 64.8255 163.933 61.6198 163.619 60.8715C163.553 60.7052 163.334 60.5297 163.188 60.5204C162.727 60.5204 162.296 61.0655 161.938 61.8138C161.997 59.9292 161.938 58.5711 161.434 58.0353C161.237 57.8228 160.988 57.7581 160.725 57.8228C160.367 57.9244 160.104 58.2662 159.907 58.7928C159.834 58.8021 159.76 58.8205 159.687 58.839C158.657 59.1624 158.862 62.6637 159.227 65.5554C158.847 65.3152 158.131 64.4652 157.722 63.9756C156.772 62.8485 156.202 62.1741 155.719 62.5621C155.566 62.6822 155.464 62.8762 155.427 63.1072C155.295 63.874 155.865 65.075 156.757 66.821C156.823 66.9596 156.903 67.1074 156.976 67.246H157.919C157.787 66.9688 157.634 66.664 157.429 66.2667L157.422 66.276ZM160.908 58.8113C161.017 58.9037 161.076 59.227 161.112 59.6705C161.061 59.5411 161.003 59.421 160.93 59.3194C160.857 59.2086 160.784 59.1162 160.696 59.0423C160.762 58.9129 160.827 58.839 160.908 58.8113ZM160.097 64.1511C160.126 63.3289 160.192 61.4443 160.404 60.1416C160.74 60.9731 160.601 63.0425 160.082 64.5299C160.082 64.4098 160.089 64.2805 160.097 64.1419V64.1511Z" fill="#08B1BF"/>
<path d="M161.719 69.0117C160.016 72.3006 159.329 76.2361 158.657 80.0424L158.43 81.3173C157.188 88.2461 155.909 94.0201 151.766 99.905C151.225 100.672 150.574 101.429 149.88 102.224C148.47 103.859 147.008 105.55 146.358 107.536C145.62 109.781 145.876 112.866 146.124 115.86C146.27 117.652 146.409 119.343 146.329 120.756C146.204 122.927 145.824 125.181 145.444 127.352C145.123 129.209 144.809 131.094 144.641 132.96C144.67 132.701 144.838 132.507 145.072 132.526C145.291 132.554 145.452 132.794 145.437 133.062C145.598 131.269 145.912 129.44 146.234 127.565C146.614 125.348 147.008 123.066 147.133 120.821C147.213 119.324 147.074 117.587 146.921 115.749C146.687 112.885 146.446 109.929 147.103 107.924C147.688 106.141 149.076 104.533 150.421 102.972C151.13 102.159 151.795 101.383 152.365 100.579C156.64 94.519 157.948 88.6156 159.212 81.5482L159.439 80.2733C160.089 76.5595 160.769 72.7071 162.384 69.5752C162.654 69.0579 162.902 68.2172 163.114 67.2656H162.281C162.113 67.977 161.923 68.6052 161.711 69.0209L161.719 69.0117Z" fill="#08B1BF"/>
<path d="M145.469 138.097C145.615 138.309 145.593 138.633 145.425 138.808C145.264 138.984 145.03 138.975 144.877 138.79C144.87 138.845 144.862 138.901 144.848 138.956C145.133 140.397 145.615 141.811 146.404 143.178C146.273 142.956 146.302 142.642 146.477 142.476C146.653 142.3 146.908 142.347 147.04 142.568C147.04 142.568 147.04 142.578 147.047 142.587C145.498 139.889 145.177 136.998 145.359 133.977C145.264 135.224 145.162 136.416 145.03 137.515C145.271 137.847 145.425 138.06 145.454 138.106L145.469 138.097Z" fill="#08B1BF"/>
<path d="M134.966 96.0142C135.112 95.931 135.273 95.9587 135.383 96.0788C135.397 95.9218 135.419 95.774 135.434 95.6169C135.682 92.2726 136.771 87.1083 138.299 86.6557C139.212 86.3785 140.213 87.9675 140.893 89.3533C141.477 90.5358 141.222 93.1872 140.308 95.5061C139.731 96.975 139.015 97.9912 138.32 98.333C138.182 96.55 138.24 95.968 138.306 95.3121C138.328 95.0626 138.357 94.8039 138.372 94.4898C138.43 94.4991 138.496 94.5176 138.554 94.5268C138.766 94.5822 139.066 94.6561 139.431 94.6654C139.592 94.6654 139.723 94.573 139.797 94.3975C139.87 94.2312 139.862 94.0187 139.775 93.8616C139.482 93.335 139.153 91.8384 138.89 90.6374C138.671 89.6212 138.474 88.7435 138.284 88.2816C138.182 88.0322 137.94 87.9398 137.743 88.0691C137.546 88.1985 137.465 88.5033 137.575 88.7528C137.729 89.1223 137.926 90.0277 138.116 90.9146C138.32 91.8476 138.532 92.8084 138.759 93.5383C138.744 93.5383 138.722 93.529 138.708 93.529C138.394 93.4551 138.094 93.3812 137.845 93.6214C137.626 93.8339 137.582 94.1757 137.568 94.4067C137.553 94.7116 137.531 94.9518 137.502 95.1827C137.429 95.9403 137.356 96.6424 137.568 99.0074C137.59 99.2846 137.765 99.4878 138.006 99.4601C139.102 99.3308 140.198 98.0559 141.024 95.9587C141.894 93.7508 142.435 90.5727 141.572 88.8174C140.367 86.36 139.227 85.3438 138.109 85.6671C135.807 86.3508 134.813 93.0117 134.63 95.5245C134.477 97.5478 133.797 99.0259 132.759 99.5617C132.043 99.9313 131.254 99.7742 130.647 99.1368C129.668 98.1113 129.347 96.1343 129.749 93.7323C130.501 89.2609 133.249 82.2951 137.546 82.6C139.57 82.7478 141.163 83.7455 142.274 85.5748C143.757 88.0137 144.232 91.7275 143.575 95.7832C143.297 97.5108 142.837 98.7949 142.537 99.6449C142.223 100.532 142.047 101.012 142.347 101.4C142.676 101.816 143.158 101.585 144.517 100.846C146.293 99.8851 150.378 95.1827 151.628 93.4551C157.423 85.4547 158.468 77.9253 158.285 68.3728C158.285 68.1234 158.146 67.7723 157.912 67.2734H156.969C157.218 67.7631 157.459 68.2619 157.488 68.4005C157.671 77.7036 156.655 85.0205 151.043 92.7715C149.859 94.3975 145.855 99.0167 144.203 99.9128C143.955 100.051 143.48 100.31 143.136 100.458C143.18 100.329 143.231 100.19 143.275 100.061C143.589 99.1645 144.072 97.8157 144.371 95.9865C145.073 91.6444 144.547 87.6257 142.917 84.9558C141.675 82.9141 139.833 81.75 137.604 81.593C137.495 81.593 137.385 81.5838 137.275 81.5838C132.672 81.5838 129.8 88.6604 128.974 93.529C128.506 96.319 128.93 98.6471 130.143 99.9313C130.984 100.818 132.08 101.031 133.074 100.513C133.994 100.033 134.681 99.0167 135.083 97.6401C134.988 97.3353 134.908 97.0396 134.776 96.7071C134.681 96.4576 134.762 96.1528 134.966 96.0327V96.0142Z" fill="#08B1BF"/>
<path d="M134.806 180.474C133.644 179.772 132.321 179.061 130.896 178.312C131.992 179.135 133.293 179.855 134.806 180.474Z" fill="#08B1BF"/>
<path d="M135.126 179.539C135.2 179.585 135.28 179.631 135.353 179.678C135.316 179.631 135.265 179.604 135.214 179.585C135.185 179.576 135.156 179.558 135.126 179.548V179.539Z" fill="#08B1BF"/>
<path d="M130.048 176.758C130.464 176.98 130.873 177.192 131.268 177.396C129.69 176.195 128.564 174.781 127.907 173.118C126.321 169.127 127.592 164.471 128.71 160.36C128.871 159.778 129.025 159.205 129.171 158.651C131.685 148.886 134.089 136.035 130.369 123.194C129.66 120.746 129.997 118.288 130.296 116.117C130.698 113.207 131.071 110.454 128.213 109.595C127.11 109.253 125.568 110.334 123.792 111.59C121.849 112.967 119.642 114.519 118.268 113.78C113.92 111.443 112.509 103.59 113.036 96.8459C113.101 95.9682 113.036 94.9151 112.816 93.5293C112.743 93.0397 112.568 92.4854 112.371 91.9495C112.407 92.0327 112.444 92.1158 112.48 92.199C112.561 92.3837 112.729 92.4761 112.897 92.4484C113.065 92.4115 113.196 92.2544 113.226 92.0419C113.291 91.6169 113.131 90.9795 112.853 89.8801C112.824 89.76 112.787 89.6122 112.751 89.4644C112.941 90.148 113.123 90.8779 113.226 91.2844L113.379 91.8941C113.445 92.1528 113.649 92.2914 113.861 92.2267C114.066 92.162 114.197 91.9126 114.161 91.6447C114.139 91.4968 114.117 91.3306 114.081 91.1458C114.285 91.8479 114.658 91.968 114.855 91.9865C115.155 92.005 115.403 91.8294 115.542 91.5061C115.849 90.767 115.498 89.1872 115.016 87.8846C115.162 87.3118 115.33 86.9238 115.454 86.7483C115.608 87.4227 115.71 89.4459 115.63 92.1528C115.63 92.3283 115.732 92.6055 115.849 92.7071C116.185 92.9842 116.646 92.7071 117.654 92.0604C117.771 91.9865 117.91 91.9033 118.049 91.811C117.712 92.3098 117.296 92.8641 117.055 93.1228C114.965 95.5987 114.271 99.0631 115.155 102.648C115.988 106.01 118.041 108.819 119.941 109.17C120.884 109.345 122.28 108.052 124.289 106.057C125.166 105.188 126.072 104.283 126.533 104.061C127.088 103.793 128.104 104.209 129.083 104.615C130.238 105.096 131.326 105.539 132.145 105.16C133.723 104.431 135.426 103.424 136.04 101.502C136.493 100.098 136.318 98.3795 135.506 96.2546C135.477 96.1807 135.441 96.1253 135.39 96.0791C135.324 96.6334 135.221 97.1508 135.09 97.6312C135.514 99.0446 135.601 100.199 135.302 101.123C134.907 102.361 133.884 103.276 131.875 104.209C131.312 104.468 130.311 104.052 129.339 103.645C128.17 103.165 127.073 102.703 126.248 103.11C125.67 103.387 124.801 104.255 123.8 105.253C122.587 106.463 120.752 108.274 120.065 108.163C118.48 107.867 116.66 105.308 115.929 102.343C115.469 100.467 115.067 96.8644 117.596 93.8711C117.617 93.8434 119.671 91.5523 119.291 90.7023C118.999 90.0557 118.363 90.4714 117.296 91.1458C117.04 91.3121 116.697 91.5246 116.441 91.6631C116.58 85.6859 115.944 85.6489 115.593 85.6212C115.147 85.6397 114.775 86.0739 114.512 86.7206C114.424 86.5451 114.336 86.388 114.256 86.2494C114.117 86.0277 113.701 85.3533 113.182 85.5288C112.765 85.6582 112.634 86.1848 112.677 87.1456C112.495 86.9423 112.305 86.8776 112.078 86.9515C111.925 87.007 111.801 87.1363 111.72 87.3211C111.537 87.746 111.64 88.4112 111.881 89.3997C111.494 88.947 111.289 89.0487 111.165 89.1041C111.019 89.1688 110.909 89.2981 110.851 89.4829C110.704 89.9263 110.909 90.4899 111.34 91.6169C111.611 92.3283 111.925 93.1413 112.02 93.7418C112.224 95.0352 112.29 95.9867 112.224 96.7627C111.713 103.359 112.897 112.015 117.946 114.731C119.685 115.674 121.973 114.057 124.18 112.496C125.67 111.443 127.205 110.352 128.023 110.602C130.062 111.221 129.938 112.782 129.5 115.969C129.2 118.15 128.827 120.866 129.609 123.573C133.248 136.118 130.873 148.757 128.403 158.365C128.265 158.91 128.111 159.473 127.95 160.055C126.84 164.139 125.451 169.229 127.19 173.599C127.541 174.486 128.023 175.299 128.601 176.065C128.959 176.232 129.317 176.398 129.675 176.583L130.048 176.777V176.758ZM114.892 90.9703C114.819 90.9148 114.724 90.5361 114.731 89.8709C114.877 90.5453 114.877 90.9148 114.892 90.9703ZM114.146 87.9678C114.022 88.5775 113.949 89.1872 113.934 89.6214C113.92 89.9263 113.927 90.2035 113.942 90.4344L113.927 90.3698C113.766 89.4459 113.43 87.4504 113.459 86.6559C113.627 86.8684 113.883 87.3211 114.139 87.9678H114.146Z" fill="#08B1BF"/>
<path d="M135.091 180.564C135.259 180.564 135.42 180.426 135.471 180.213C135.522 180.01 135.471 179.798 135.347 179.668C135.274 179.622 135.194 179.576 135.12 179.53C133.615 178.92 132.336 178.209 131.269 177.396C130.867 177.183 130.465 176.971 130.049 176.758L129.676 176.564C129.318 176.379 128.96 176.213 128.602 176.047C129.231 176.869 129.99 177.627 130.897 178.31C132.322 179.059 133.644 179.77 134.806 180.472C134.865 180.5 134.916 180.518 134.974 180.546C135.011 180.564 135.055 180.574 135.099 180.574L135.091 180.564Z" fill="#08B1BF"/>
<path d="M134.968 96.0155C134.77 96.1356 134.683 96.4405 134.778 96.6899C134.902 97.0225 134.99 97.3181 135.085 97.623C135.223 97.1518 135.326 96.6345 135.384 96.0709C135.267 95.9601 135.107 95.9231 134.968 96.0062V96.0155Z" fill="#08B1BF"/>
<path d="M82.1559 155.622C80.5629 154.328 79.1525 154.254 77.881 154.199C76.4267 154.144 75.1698 154.088 73.8471 152.157C73.8252 152.12 73.5987 151.806 73.2625 151.585C72.751 151.252 72.2395 151.317 71.8303 151.769C71.6256 151.991 71.3406 152.776 71.136 153.395C71.0483 153.654 71.1506 153.95 71.3553 154.06C71.5599 154.171 71.7937 154.051 71.8814 153.792C72.0495 153.284 72.2906 152.647 72.3637 152.536C72.7364 152.13 73.1968 152.758 73.2479 152.832C74.8045 155.095 76.361 155.151 77.8663 155.215C79.3205 155.271 80.8259 155.335 82.609 157.303C82.609 157.303 82.6163 157.303 82.6236 157.303C82.5651 157.238 82.514 157.165 82.4847 157.063C82.3751 156.601 82.2655 156.111 82.1559 155.612V155.622Z" fill="#08B1BF"/>
<path d="M83.1698 157.259C83.1698 157.259 83.185 157.23 83.1926 157.211C83.1774 157.24 83.1622 157.259 83.147 157.288C83.147 157.288 83.1622 157.278 83.1698 157.268V157.259Z" fill="#08B1BF"/>
<path d="M82.1553 155.62C82.2649 156.119 82.3745 156.609 82.4841 157.07C82.506 157.172 82.5572 157.255 82.6229 157.311C82.696 157.385 82.7764 157.431 82.8714 157.431C82.9153 157.431 82.9664 157.412 83.0103 157.394C83.0322 157.385 83.0541 157.366 83.076 157.348C83.1052 157.329 83.1272 157.301 83.1491 157.274C83.1637 157.255 83.1783 157.228 83.1929 157.2C83.2076 157.172 83.2222 157.144 83.2368 157.107C83.2441 157.08 83.2514 157.052 83.2587 157.015C83.2587 156.987 83.266 156.95 83.266 156.923C83.266 156.886 83.266 156.858 83.266 156.821C83.2514 156.71 83.2149 156.609 83.1418 156.525C82.8056 156.156 82.4841 155.869 82.1626 155.602L82.1553 155.62Z" fill="#08B1BF"/>
<path d="M89.7406 145.333C89.726 145.204 89.7114 145.065 89.6895 144.945C89.6895 144.955 89.6895 144.964 89.6895 144.973C89.6895 145.038 89.7114 145.176 89.7406 145.343V145.333Z" fill="#08B1BF"/>
<path d="M88.8997 145.06C89.4477 148.913 89.5866 154.41 89.5354 158.262C89.5281 158.816 89.5501 159.445 89.572 160.11C89.6597 162.65 89.762 165.523 88.3443 166.66C87.5478 167.307 84.4274 164.664 83.0974 163.537C82.6736 163.177 82.3155 162.872 82.067 162.687C81.6651 162.382 81.2267 162.022 80.7663 161.634C78.9394 160.128 76.8786 158.41 75.0371 158.632C72.6037 158.918 71.4271 160.664 70.2141 163.565C70.1118 163.814 70.1849 164.119 70.3822 164.249C70.5795 164.378 70.8206 164.286 70.9229 164.036C72.2164 160.932 73.2394 159.87 75.1102 159.639C76.6813 159.463 78.6982 161.135 80.3278 162.475C80.8028 162.863 81.2486 163.232 81.6578 163.546C81.8917 163.722 82.2351 164.018 82.6443 164.359C82.9951 164.655 83.3386 164.941 83.682 165.228C83.6747 165.154 83.6674 165.089 83.6528 165.006C83.6236 164.729 83.7697 164.47 83.9889 164.433C84.2155 164.387 84.4128 164.581 84.442 164.868C84.4932 165.329 84.5443 165.662 84.5809 165.958C85.9328 167.002 87.1458 167.75 88.0228 167.75C88.3005 167.75 88.5489 167.676 88.7535 167.51C90.5585 166.059 90.4416 162.724 90.3539 160.054C90.332 159.417 90.31 158.807 90.3173 158.271C90.3466 156.054 90.3173 153.292 90.1785 150.603C89.455 147.841 88.9143 145.605 88.8851 145.023C88.8851 145.033 88.8851 145.042 88.8851 145.051L88.8997 145.06Z" fill="#08B1BF"/>
<path d="M83.9949 164.453C83.7756 164.49 83.6222 164.749 83.6587 165.026C83.666 165.109 83.6733 165.174 83.6879 165.248C83.9948 165.497 84.3018 165.737 84.5941 165.968C84.5502 165.673 84.5064 165.34 84.4552 164.878C84.426 164.601 84.2214 164.398 84.0022 164.444L83.9949 164.453Z" fill="#08B1BF"/>
<path d="M185.99 68.5881C185.99 68.8653 186.165 69.0963 186.385 69.1055C186.604 69.1055 186.786 68.8838 186.794 68.6066C186.794 68.1077 186.794 67.6735 186.786 67.2578H185.844C185.931 67.6273 185.997 68.0616 185.99 68.5881Z" fill="#08B1BF"/>
<path d="M191.353 63.3501C191.309 63.3039 191.258 63.2762 191.199 63.2577C190.651 63.1007 190.198 63.8767 189.599 65.5766C189.562 64.2278 189.409 62.9529 189.175 62.5187C189.029 62.2323 188.832 62.1953 188.729 62.1953C188.115 62.1953 187.728 63.4055 187.48 64.7821C187.399 64.5419 187.304 64.3386 187.195 64.2001C187.019 63.9783 186.844 63.9321 186.72 63.9321C186.522 63.9321 186.347 64.0245 186.215 64.1908C186.003 64.468 185.945 64.8837 185.938 65.5119C185.923 65.4934 185.901 65.4842 185.887 65.4657C185.66 65.2902 185.412 65.2809 185.192 65.4288C185.061 65.5119 184.98 65.6874 184.98 65.8722C184.98 66.3526 184.966 66.8145 184.944 67.258H185.74C185.74 67.1471 185.755 67.0455 185.762 66.9254C185.792 67.0178 185.813 67.1471 185.835 67.258H186.778C186.778 67.027 186.771 66.7868 186.763 66.5743C186.749 66.0108 186.727 65.3918 186.727 65.1054C186.858 65.4565 187.012 66.2233 187.078 67.258H187.977C188.093 65.7152 188.393 64.0984 188.612 63.461C188.758 64.237 188.846 65.9092 188.773 67.258H189.906C190.154 66.4912 190.461 65.5766 190.724 64.9484C190.651 65.4934 190.512 66.2695 190.308 67.258H191.133C191.762 64.1077 191.623 63.6273 191.338 63.3501H191.353Z" fill="#08B1BF"/>
<path d="M188.56 68.7914C188.473 69.0501 188.568 69.3457 188.772 69.4566C188.97 69.5674 189.211 69.4473 189.299 69.1886C189.394 68.9023 189.503 68.5512 189.62 68.1632C189.693 67.923 189.795 67.5996 189.905 67.2578H188.772C188.736 67.8768 188.67 68.4403 188.553 68.7914H188.56Z" fill="#08B1BF"/>
<path d="M187.121 68.4865C187.121 68.7637 187.297 68.9946 187.523 68.9946C187.743 68.9946 187.925 68.7729 187.925 68.4865C187.925 68.0985 187.947 67.6828 187.984 67.2578H187.085C187.114 67.6366 187.129 68.0431 187.129 68.4773L187.121 68.4865Z" fill="#08B1BF"/>
<path d="M146.419 143.181C146.419 143.181 146.471 143.275 146.501 143.313C146.508 143.313 146.516 143.294 146.523 143.285C146.486 143.256 146.449 143.219 146.419 143.172V143.181Z" fill="#08B1BF"/>
<path d="M179.916 81.6079C175.889 87.6499 172.71 92.4169 175.027 100.722C175.48 102.339 176.042 103.669 176.591 104.953C177.555 107.217 178.388 109.175 178.417 112.178C178.432 113.675 178.476 115.337 178.512 117.093C178.688 124.862 178.907 134.535 177.694 140.956C177.087 144.161 175.969 147.201 174.895 150.139C173.076 155.081 171.205 160.19 171.724 166.204C170.036 165.049 168.479 165.89 166.974 166.685C165.125 167.673 163.371 168.606 161.215 166.019C157.89 162.038 154.602 156.051 151.423 150.268C149.888 147.478 148.442 144.845 147.06 142.582C147.17 142.785 147.148 143.043 147.017 143.219C147.148 143.746 147.265 144.217 147.404 144.762C147.389 144.762 147.375 144.762 147.353 144.762C148.442 146.628 149.574 148.688 150.758 150.841C153.959 156.67 157.269 162.694 160.66 166.749C163.196 169.789 165.366 168.634 167.288 167.608C168.969 166.712 170.416 165.936 172.074 167.719C173.448 169.197 174.917 169.964 176.269 169.964C176.992 169.964 177.687 169.743 178.315 169.299C179.989 168.107 180.829 165.539 180.464 162.758C180.339 161.788 179.916 160.948 179.302 160.449C178.534 159.82 177.241 159.294 175.472 160.412C174.274 161.169 173.134 163.534 172.462 165.16C172.213 159.839 173.879 155.321 175.626 150.554C176.722 147.57 177.855 144.485 178.483 141.187C179.718 134.636 179.499 124.89 179.324 117.056C179.287 115.31 179.251 113.656 179.229 112.159C179.192 108.907 178.271 106.746 177.299 104.464C176.766 103.217 176.218 101.914 175.787 100.371C173.624 92.6201 176.517 88.2688 180.551 82.2177C183.745 77.4229 185.477 73.6537 185.747 67.2422H184.95C184.687 73.3673 183.072 76.8501 179.916 81.5987V81.6079ZM175.831 161.326C177.263 160.43 178.271 160.818 178.863 161.308C179.28 161.65 179.579 162.259 179.667 162.934C179.974 165.28 179.287 167.442 177.913 168.421C176.415 169.493 174.501 168.976 172.644 167.008C173.163 165.539 174.566 162.121 175.831 161.326Z" fill="#08B1BF"/>
<path d="M189.84 99.8048C189.877 99.5276 190.074 99.3521 190.3 99.389C190.512 99.4352 190.659 99.6939 190.629 99.9618C192.822 96.8947 194.561 91.832 194.561 89.7996C194.561 86.3259 193.333 83.5913 191.426 82.8523C189.767 82.2056 187.984 83.2772 186.661 85.7254C185.149 88.5339 185.55 91.7304 185.909 94.5389C186.237 97.1256 186.544 99.5646 185.39 101.385C184.783 102.336 184.038 102.641 183.168 102.262C181.319 101.458 179.412 97.8647 179.376 95.1301C179.332 91.5364 180.611 88.5154 182.54 85.0972L183.424 83.5174C186.449 78.1222 187.969 75.4061 191.623 71.4521C192.522 70.3896 192.814 69.7799 192.668 69.281C192.632 69.1517 192.5 68.8376 192.12 68.8099C191.769 68.7729 191.207 69.0408 190.688 69.4104C190.87 68.5789 191.017 67.8768 191.141 67.2578H190.315C190.132 68.1447 189.906 69.1886 189.628 70.4266L189.555 70.7499C189.497 70.9994 189.599 71.2673 189.796 71.3597C189.986 71.4521 190.205 71.3504 190.3 71.1102C190.461 70.7037 191.177 70.1679 191.667 69.9277C191.543 70.1125 191.36 70.3619 191.09 70.6853C187.377 74.7132 185.843 77.457 182.774 82.9169L181.889 84.4967C180.143 87.6008 178.535 91.0375 178.579 95.1394C178.616 98.2804 180.764 102.281 182.912 103.214C184.104 103.731 185.2 103.297 186.018 102.013C187.392 99.8417 187.041 97.061 186.698 94.3726C186.347 91.6103 185.989 88.7649 187.319 86.289C188.452 84.2011 189.855 83.2865 191.185 83.8131C192.727 84.4136 193.757 86.8156 193.75 89.7903C193.75 91.6195 191.755 97.4397 189.343 100.137C189.153 100.35 188.97 100.396 188.78 100.294C188.452 100.11 188.189 99.5276 188.174 98.9364C188.167 98.4929 188.284 97.6615 189.182 97.0887C189.307 97.0148 189.387 96.8577 189.402 96.6914C189.416 96.5159 189.358 96.3496 189.255 96.2387L188.342 95.3241L189.102 94.5296C189.204 94.428 189.255 94.2617 189.248 94.0954C189.234 93.9291 189.16 93.7813 189.044 93.6982L188.072 93.0145C188.788 91.481 190.381 87.4253 190.556 85.5499C190.578 85.2727 190.425 85.0233 190.205 84.9863C189.979 84.9771 189.789 85.1526 189.76 85.4298C189.592 87.3421 187.611 92.1461 187.187 92.8944C187.122 93.0145 187.092 93.1624 187.122 93.3009C187.144 93.4395 187.217 93.5688 187.319 93.6335L188.145 94.2155L187.45 94.9361C187.355 95.0378 187.304 95.1763 187.304 95.3334C187.304 95.4812 187.363 95.629 187.458 95.7214L188.313 96.5806C187.692 97.1811 187.348 98.0218 187.37 98.9548C187.392 99.9434 187.838 100.876 188.459 101.218C188.927 101.477 189.424 101.357 189.84 100.923C189.789 100.507 189.782 100.11 189.825 99.7955L189.84 99.8048Z" fill="#08B1BF"/>
<path d="M147.017 143.227C147.017 143.227 146.988 143.273 146.966 143.291C146.893 143.356 146.812 143.384 146.732 143.384C146.659 143.384 146.586 143.347 146.52 143.291C146.513 143.291 146.505 143.31 146.498 143.319C146.783 143.79 147.068 144.271 147.36 144.769C147.375 144.769 147.39 144.769 147.411 144.769C147.273 144.224 147.156 143.744 147.024 143.227H147.017Z" fill="#08B1BF"/>
<path d="M146.491 142.476C146.316 142.642 146.287 142.956 146.418 143.178C146.447 143.224 146.484 143.261 146.52 143.289C146.659 143.15 146.784 143.012 146.93 142.864C146.959 142.993 146.988 143.095 147.017 143.215C147.149 143.039 147.171 142.781 147.061 142.578C147.061 142.578 147.061 142.568 147.054 142.559C146.922 142.337 146.667 142.291 146.491 142.467V142.476Z" fill="#08B1BF"/>
<path d="M146.52 143.291C146.585 143.346 146.658 143.383 146.731 143.383C146.812 143.383 146.9 143.355 146.965 143.291C146.987 143.272 146.995 143.245 147.016 143.226C146.987 143.106 146.958 142.995 146.929 142.875C146.783 143.023 146.658 143.161 146.52 143.3V143.291Z" fill="#08B1BF"/>
<path d="M199.063 66.0733C198.865 65.3527 198.617 64.6875 198.171 64.6875C198.003 64.6875 197.842 64.7706 197.718 64.9277C197.426 65.3065 197.36 66.0548 197.353 67.2558H198.156C198.156 66.8031 198.171 66.3597 198.208 66.0455C198.303 66.3504 198.412 66.7754 198.514 67.2558H199.34C199.194 66.5906 199.07 66.0825 199.07 66.0733H199.063Z" fill="#08B1BF"/>
<path d="M195.48 69.3443C194.764 67.4319 194.618 67.1732 194.223 67.358C193.836 67.5243 193.938 68.0786 193.996 68.4112C194.077 68.8731 194.164 69.2981 194.238 69.6953C194.479 70.9518 194.698 72.0419 194.552 72.4484C194.442 72.7532 193.901 72.9842 193.507 73.1505C193.017 73.363 192.586 73.5385 192.44 73.982C192.389 74.1298 192.352 74.3607 192.447 74.6379C192.506 74.7949 192.623 74.9058 192.761 74.9335C194.347 75.2107 195.443 75.922 196.116 77.1323C197.08 78.8598 197.212 81.6591 196.51 85.9457L196.444 86.3522C195.633 91.3317 194.428 98.7871 190.927 101.956C190.693 101.411 190.547 100.542 190.62 99.9881C190.62 99.9881 190.62 99.9789 190.62 99.9697C190.379 100.311 190.131 100.626 189.882 100.912C189.868 100.921 189.86 100.93 189.846 100.94C189.941 101.706 190.182 102.538 190.54 103C190.671 103.175 190.883 103.203 191.044 103.074C195.071 99.8403 196.371 91.8398 197.234 86.5462L197.299 86.1397C198.045 81.5667 197.877 78.5088 196.773 76.541C196.101 75.34 195.1 74.5455 193.733 74.1298C193.748 74.1298 193.755 74.1205 193.77 74.1205C194.34 73.8803 195.041 73.5847 195.297 72.8641C195.429 72.4853 195.436 72.0142 195.363 71.4044C195.736 72.3745 195.772 72.3837 196.006 72.4022C196.13 72.4207 196.298 72.319 196.371 72.162C196.415 72.0696 196.437 71.968 196.43 71.8664C196.423 71.6354 196.401 71.2843 196.371 70.8686C196.32 70.0833 196.218 68.4204 196.218 67.2656H195.414C195.414 67.8015 195.436 68.4759 195.48 69.3443Z" fill="#08B1BF"/>
<path d="M197.35 67.2948C197.35 67.2948 197.35 67.2671 197.343 67.2578H196.495C196.678 67.9876 196.831 68.9392 196.912 69.4288C197.029 70.1402 197.138 70.8146 197.27 71.3227C197.328 71.5444 197.504 71.7107 197.672 71.6738C197.854 71.6645 198.008 71.4983 198.044 71.2765C198.183 70.482 198.169 69.3549 198.161 68.2648C198.161 67.9692 198.161 67.6181 198.161 67.2671H197.357C197.357 67.2671 197.357 67.2855 197.357 67.304L197.35 67.2948Z" fill="#08B1BF"/>
<path d="M196.079 65.2436C195.955 65.2436 195.758 65.336 195.678 65.4469C195.502 65.6871 195.415 66.1952 195.422 67.2484H196.226C196.226 66.9342 196.226 66.6479 196.248 66.4354C196.335 66.6109 196.423 66.9065 196.511 67.2484H197.358C197.095 66.0843 196.744 65.2344 196.094 65.2344L196.079 65.2436Z" fill="#08B1BF"/>
<path d="M200.786 66.9844C200.603 66.9383 200.464 66.9844 200.274 67.2524H201.064C200.976 67.0768 200.859 67.0029 200.786 66.9844Z" fill="#08B1BF"/>
<path d="M215.526 156.131C213.896 155.688 212.771 155.882 212.069 156.75C210.82 158.293 211.309 161.545 211.835 164.991C212.011 166.174 212.193 167.384 212.31 168.548C212.31 168.585 212.296 168.613 212.296 168.631C212.23 168.613 212.135 168.557 212.076 168.52L211.945 168.446C210.6 167.772 210.023 165.887 209.453 164.058C208.876 162.192 208.276 160.252 206.837 159.679C205.456 159.125 203.57 159.91 200.888 162.155L200.085 162.829C196.489 165.869 186.931 173.925 183.862 171.892C182.846 170.747 182.086 152.639 182.466 148.87C182.861 145.036 185.952 140.583 188.356 139.318C188.984 138.985 189.861 138.717 190.468 139.299C190.979 139.798 191.52 141.101 191.162 144.51C191.191 144.232 191.381 144.029 191.615 144.075C191.834 144.112 191.988 144.362 191.966 144.648C191.966 144.694 191.951 144.74 191.951 144.787C194.538 140.87 193.223 135.945 191.951 131.178C191.257 128.592 190.599 126.144 190.563 123.917C190.475 118.42 191.842 113.404 195.123 107.149C198.893 99.9618 199.829 94.3726 200.223 86.5754C200.297 85.088 200.223 83.4897 200.136 81.7899C200.012 79.1939 199.88 76.5147 200.348 74.3437C200.742 72.5052 201.166 69.3919 201.166 67.692C201.166 67.4888 201.13 67.3594 201.078 67.2578H200.289C200.121 67.5072 199.924 67.9415 199.624 68.699C199.544 68.2001 199.442 67.692 199.347 67.2578H198.521C198.777 68.4496 199.01 69.9185 199.018 70.3527C199.003 70.4913 199.025 70.6298 199.098 70.7499C199.237 70.9717 199.485 71.0086 199.661 70.8331C199.741 70.7499 199.748 70.7407 199.895 70.325C200.033 69.937 200.158 69.6044 200.267 69.3365C200.128 70.907 199.843 72.8101 199.566 74.085C199.069 76.4131 199.2 79.1754 199.332 81.8545C199.412 83.5174 199.485 85.088 199.42 86.5107C199.025 94.3079 198.148 99.5553 194.45 106.586C192.061 111.131 189.635 116.748 189.752 123.936C189.788 126.319 190.497 128.952 191.177 131.502C192.222 135.391 193.296 139.401 192.075 142.671C192.09 140.639 191.71 139.244 190.95 138.505C190.227 137.812 189.226 137.765 188.042 138.384C185.389 139.779 182.101 144.51 181.662 148.741C181.406 151.244 181.772 171.652 183.46 172.779C183.906 173.075 184.446 173.213 185.053 173.213C189.226 173.213 196.679 166.922 200.523 163.679L201.327 163.005C203.76 160.972 205.485 160.206 206.588 160.649C207.67 161.083 208.167 162.709 208.7 164.437C209.3 166.368 209.972 168.566 211.638 169.398L211.74 169.453C211.974 169.583 212.332 169.786 212.676 169.546C212.902 169.389 213.048 169.084 213.099 168.64C213.099 168.594 213.099 168.548 213.099 168.502C212.983 167.291 212.793 166.026 212.61 164.806C212.135 161.638 211.682 158.644 212.617 157.48C213.099 156.88 214.02 156.769 215.336 157.129C217.871 157.822 221.649 159.716 226.56 162.709V161.582C221.759 158.672 218.039 156.824 215.504 156.131H215.526Z" fill="#08B1BF"/>
<path d="M230.325 164.488C230.427 164.239 230.346 163.934 230.149 163.805C228.892 163.001 227.716 162.271 226.583 161.578V162.705C227.606 163.333 228.658 163.989 229.784 164.71C229.981 164.839 230.222 164.738 230.325 164.488Z" fill="#08B1BF"/>
<path d="M190.63 99.9605C190.659 99.6926 190.513 99.4339 190.301 99.3877C190.075 99.3508 189.877 99.5263 189.841 99.8034C189.797 100.127 189.804 100.524 189.855 100.931C189.87 100.921 189.877 100.912 189.892 100.903C190.14 100.616 190.389 100.302 190.63 99.9605Z" fill="#08B1BF"/>
<path d="M191.397 145.042C191.236 144.95 191.141 144.737 191.163 144.516C191.017 145.975 190.841 147.435 190.659 148.904C190.191 152.83 189.702 156.886 189.731 160.886C189.731 161.052 189.797 161.209 189.906 161.302C189.972 161.357 190.052 161.385 190.133 161.385C190.184 161.385 190.228 161.376 190.279 161.348C190.812 161.089 191.404 160.544 192.091 159.925C193.589 158.558 195.46 156.858 198.018 156.72C201.854 156.507 205.866 155.343 207.576 154.844C207.978 154.724 208.263 154.641 208.409 154.613C208.628 154.567 208.774 154.299 208.738 154.022C208.701 153.745 208.504 153.569 208.27 153.606C208.117 153.643 207.817 153.726 207.393 153.846C205.705 154.336 201.744 155.491 197.981 155.694C195.182 155.842 193.121 157.717 191.616 159.085C191.221 159.445 190.856 159.778 190.535 160.027C190.571 156.369 191.017 152.645 191.448 149.042C191.623 147.61 191.791 146.188 191.938 144.765C191.908 144.811 191.886 144.848 191.857 144.894C191.74 145.061 191.55 145.116 191.39 145.024L191.397 145.042Z" fill="#08B1BF"/>
<path d="M191.608 144.072C191.381 144.035 191.184 144.229 191.154 144.506C191.133 144.728 191.228 144.94 191.388 145.033C191.549 145.125 191.739 145.069 191.856 144.903C191.885 144.857 191.907 144.82 191.936 144.774C191.936 144.728 191.951 144.681 191.951 144.635C191.98 144.358 191.827 144.099 191.6 144.062L191.608 144.072Z" fill="#08B1BF"/>
<path d="M89.0605 106.44C88.8412 106.431 88.6659 106.19 88.6732 105.913C88.6732 105.858 88.6878 105.812 88.7024 105.756C88.5197 105.645 88.3078 105.71 88.1909 105.932C88.0666 106.163 88.1251 106.477 88.3078 106.634C88.4832 106.782 88.7828 106.92 89.1336 106.92C89.4843 106.92 89.8936 106.772 90.2809 106.32C90.2955 106.301 90.2882 106.274 90.3028 106.264C90.2662 106.283 90.2297 106.311 90.1859 106.32C89.9082 106.357 89.2432 106.44 89.0605 106.44Z" fill="#08B1BF"/>
<path d="M90.3017 105.605C90.1482 105.402 89.8998 105.393 89.7317 105.577C89.2494 106.141 88.7963 105.817 88.7379 105.781C88.7232 105.771 88.7086 105.771 88.694 105.762C88.6794 105.808 88.6648 105.864 88.6648 105.919C88.6575 106.196 88.8256 106.436 89.0521 106.446C89.2348 106.446 89.8998 106.363 90.1775 106.326C90.2213 106.326 90.2578 106.298 90.2944 106.27C90.4186 106.076 90.4332 105.799 90.2944 105.614L90.3017 105.605Z" fill="#08B1BF"/>
<path d="M93.7429 163.537L94.5321 167.473C94.5759 167.704 94.744 167.851 94.9194 167.851C94.9559 167.851 94.9852 167.851 95.0217 167.833C95.2336 167.768 95.3651 167.491 95.314 167.214L94.5102 163.232C92.7856 157.153 90.1256 147.453 89.7383 145.328C89.9502 146.926 90.0891 148.746 90.1841 150.613C91.441 155.416 93.2313 161.763 93.7355 163.537H93.7429Z" fill="#08B1BF"/>
<path d="M92.2471 138.984C92.0059 139.233 91.7429 139.473 91.4798 139.723C90.2667 140.841 88.8856 142.097 88.8929 144.97C88.8929 144.979 88.8929 145.016 88.8929 145.026C88.871 144.758 89.0098 144.517 89.2144 144.462C89.4336 144.416 89.6383 144.591 89.6821 144.868C89.6821 144.887 89.6821 144.915 89.6894 144.933C89.6894 142.596 90.7856 141.598 91.9475 140.536C92.2252 140.277 92.5028 140.028 92.7586 139.76C94.6294 137.801 96.6317 139.843 97.019 140.277C96.902 139.75 96.7851 139.233 96.6828 138.716C95.5136 137.866 93.7963 137.348 92.2471 138.974V138.984Z" fill="#08B1BF"/>
<path d="M97.6619 140.353C97.8153 140.149 97.808 139.826 97.6546 139.632C97.4134 139.336 97.0846 139.013 96.6899 138.727C96.7996 139.244 96.9092 139.761 97.0261 140.288C97.0626 140.325 97.0846 140.362 97.0919 140.371C97.2526 140.565 97.5084 140.556 97.6619 140.353Z" fill="#08B1BF"/>
<path d="M89.2219 144.47C89.01 144.516 88.8711 144.765 88.9004 145.033C88.9296 145.615 89.4704 147.86 90.1938 150.613C90.0988 148.747 89.9527 146.927 89.748 145.329C89.7188 145.163 89.6969 145.033 89.6969 144.959C89.6969 144.95 89.6969 144.941 89.6969 144.932C89.6969 144.913 89.6969 144.885 89.6896 144.867C89.6531 144.59 89.4411 144.414 89.2219 144.46V144.47Z" fill="#08B1BF"/>
<path d="M136.244 144.37C136.222 144.305 133.993 137.755 136.214 133.302C136.529 132.665 136.945 132.342 137.479 132.286C139.459 132.129 142.55 135.649 144.187 137.839C144.004 139.326 143.792 140.601 143.566 141.691C143.822 141.691 144.092 141.728 144.362 141.765C144.538 140.906 144.706 139.982 144.845 138.966C144.501 137.22 144.457 135.418 144.589 133.607C144.509 134.67 144.428 135.667 144.333 136.582C142.704 134.503 139.671 131.104 137.42 131.288C136.624 131.362 135.988 131.861 135.535 132.776C133.087 137.681 135.411 144.509 135.542 144.878C135.593 144.971 136.141 145.968 136.982 146.948C137.113 146.634 137.252 146.338 137.398 146.042C136.704 145.202 136.251 144.389 136.244 144.389V144.37Z" fill="#08B1BF"/>
<path d="M140.783 148.703C142.215 148.223 143.348 146.227 144.166 142.744C143.896 142.717 143.626 142.68 143.37 142.68C143.37 142.68 143.355 142.68 143.348 142.68C142.5 146.19 141.455 147.419 140.571 147.715C139.687 148.019 138.766 147.437 138.006 146.689C137.874 146.976 137.743 147.271 137.619 147.585C138.342 148.269 139.19 148.814 140.089 148.814C140.315 148.814 140.549 148.777 140.783 148.703Z" fill="#08B1BF"/>
<path d="M145.438 133.072C145.438 133.072 145.438 133.072 145.438 133.062C145.409 133.367 145.387 133.663 145.373 133.968C145.394 133.672 145.424 133.386 145.446 133.072H145.438Z" fill="#08B1BF"/>
<path d="M144.619 133.229C144.619 133.136 144.634 133.053 144.641 132.961C144.641 132.97 144.641 132.979 144.641 132.989C144.641 133.072 144.626 133.146 144.626 133.22L144.619 133.229Z" fill="#08B1BF"/>
<path d="M137.401 146.031C137.255 146.327 137.116 146.623 136.984 146.937C137.182 147.168 137.394 147.389 137.613 147.602C137.737 147.288 137.869 146.983 138 146.706C137.781 146.493 137.584 146.262 137.394 146.04L137.401 146.031Z" fill="#08B1BF"/>
<path d="M143.35 142.685C143.35 142.685 143.365 142.685 143.372 142.685C143.628 142.685 143.898 142.713 144.169 142.75C144.242 142.445 144.307 142.094 144.373 141.761C144.103 141.724 143.832 141.697 143.577 141.688C143.504 142.039 143.43 142.371 143.35 142.685Z" fill="#08B1BF"/>
<path d="M145.072 132.525C144.838 132.506 144.67 132.7 144.641 132.959C144.633 133.051 144.626 133.134 144.619 133.227C144.612 133.347 144.597 133.476 144.59 133.596C144.465 135.407 144.502 137.199 144.845 138.955C144.853 138.899 144.86 138.844 144.875 138.788C145.021 138.973 145.262 138.982 145.423 138.807C145.591 138.622 145.605 138.299 145.467 138.095C145.437 138.049 145.284 137.828 145.043 137.504C145.174 136.414 145.277 135.222 145.372 133.966C145.393 133.67 145.415 133.365 145.437 133.06C145.452 132.783 145.291 132.543 145.072 132.525Z" fill="#08B1BF"/>
</g>
<defs>
<clipPath id="clip0_283_106">
<rect width="195.642" height="140.387" fill="white" transform="translate(31.2188 57.8047)"/>
</clipPath>
</defs>
</svg>
